<svg xmlns="http://www.w3.org/2000/svg" width="20" height="20" viewBox="0 0 20 20">
    <g fill="none" fill-rule="evenodd">
        <g fill="#000" fill-rule="nonzero">
            <g>
                <path d="M.581 3.272c-.495-.478-.693-1.185-.519-1.85C.236.755.756.235 1.422.061c.665-.174 1.372.024 1.85.519l6.392 6.392c.186.185.486.185.672 0L16.728.581c.478-.495 1.185-.693 1.85-.519.666.174 1.186.694 1.36 1.36.174.665-.024 1.372-.519 1.85l-6.392 6.392c-.185.186-.185.486 0 .672l6.392 6.392c.495.478.693 1.185.519 1.85-.174.666-.694 1.186-1.36 1.36-.665.174-1.372-.024-1.85-.519l-6.392-6.392c-.186-.185-.486-.185-.672 0l-6.392 6.392c-.747.721-1.934.71-2.668-.023-.734-.734-.744-1.921-.023-2.668l6.392-6.392c.185-.186.185-.486 0-.672L.581 3.272z" transform="translate(-322 -22) translate(80) translate(242 22)"/>
            </g>
        </g>
    </g>
</svg>
