<svg xmlns="http://www.w3.org/2000/svg" width="16" height="16" viewBox="0 0 16 16">
    <path fill="#333" d="M14.104 3.276L11.184.391C10.93.14 10.586 0 10.228 0H2.35C1.604 0 1 .597 1 1.333v13.334C1 15.403 1.604 16 2.35 16h10.8c.746 0 1.35-.597 1.35-1.333V4.219c0-.354-.142-.693-.396-.943zM7.075 13H4.037c-.372 0-.675-.298-.675-.667 0-.368.303-.666.675-.666h3.038c.373 0 .675.298.675.666 0 .369-.302.667-.675.667zm3.038-2.667H4.038c-.373 0-.676-.298-.676-.666 0-.369.303-.667.675-.667h6.076c.372 0 .675.298.675.667 0 .368-.303.666-.675.666zm0-2.666H4.038c-.373 0-.676-.299-.676-.667 0-.368.303-.667.675-.667h6.076c.372 0 .675.299.675.667 0 .368-.303.667-.675.667z"/>
</svg>
