<svg xmlns="http://www.w3.org/2000/svg" width="16" height="16" viewBox="0 0 16 16">
    <path fill="#333" d="M4.918 5.679c1.278-1.297 3.347-1.297 4.625 0l.61.62c.267.27.267.712 0 .984-.268.272-.702.272-.969 0l-.61-.62c-.743-.755-1.948-.755-2.692 0l-3.96 4.028c-.744.755-.744 1.98 0 2.736l.608.619c.753.731 1.94.731 2.692 0l1.87-1.9c.174-.178.426-.246.661-.182.236.065.42.252.483.492s-.004.495-.177.67l-1.868 1.9c-.613.623-1.445.974-2.312.974-.868 0-1.7-.35-2.312-.975l-.61-.618C.345 13.783 0 12.938 0 12.057c0-.882.344-1.728.958-2.351zM10.032.97c1.233-1.293 3.226-1.293 4.46 0l.587.62c.588.623.921 1.469.921 2.35 0 .883-.333 1.73-.924 2.353l-3.821 4.029c-.59.625-1.393.975-2.23.972l-.208-.006c-.76-.051-1.48-.393-2.021-.966-.175-.174-.247-.434-.187-.68.06-.245.242-.437.475-.5.233-.062.48.014.644.199.343.364.81.568 1.297.567l.162-.008c.428-.038.831-.236 1.136-.56l3.821-4.029c.345-.363.538-.855.538-1.369s-.193-1.006-.538-1.37l-.588-.62c-.717-.754-1.879-.754-2.596 0L9.05 3.968c-.26.263-.67.26-.924-.008s-.258-.702-.008-.974z"/>
</svg>
