<svg xmlns="http://www.w3.org/2000/svg" width="153" height="14" viewBox="0 0 153 14">
    <g fill="none" fill-rule="evenodd">
        <g fill="#FFFFFE">
            <path d="M40.518 2.839L43.563 10.772 46.203 10.772 42.004.38 39.032.38 34.833 10.772 41.46 10.772 40.632 8.611 38.303 8.611 40.518 2.839M74.558 2.839L71.513 10.772 68.873 10.772 73.071.38 76.044.38 80.243 10.772 73.616 10.772 74.444 8.611 76.773 8.611 74.558 2.839M45.836.38L50.034 10.772 53.006 10.772 57.205.38 54.565.38 51.52 8.313 48.475.38 45.836.38M57.87.38L62.069 10.772 65.041 10.772 69.24.38 66.6.38 63.555 8.313 60.51.38 57.87.38M30.259 4.52l-.545-.082c-1.27-.198-2.179-.38-2.179-1.023.017-.643.743-1.006 1.833-1.006 1.122 0 2.17.356 3.062.884l.846-2.094c-1.307-.694-2.534-1-4.007-1-2.526 0-4.342 1.336-4.342 3.414 0 1.782 1.353 2.755 3.4 3.035l.562.083c1.387.198 2.179.412 2.179 1.023 0 .676-.792 1.022-1.833 1.022-1.485 0-2.665-.522-3.474-1.1l-.873 2.164c1.156.748 2.741 1.13 4.314 1.13 2.312 0 4.507-1.056 4.507-3.48 0-1.683-1.403-2.623-3.45-2.97M87.012 4.52l-.545-.082c-1.27-.198-2.179-.38-2.179-1.023.017-.643.743-1.006 1.833-1.006 1.122 0 2.17.356 3.062.884l.846-2.094c-1.307-.694-2.533-1-4.007-1-2.526 0-4.342 1.336-4.342 3.414 0 1.782 1.354 2.755 3.4 3.035l.562.083c1.387.198 2.18.412 2.18 1.023 0 .676-.793 1.022-1.833 1.022-1.486 0-2.666-.522-3.475-1.1l-.873 2.164c1.156.748 2.741 1.13 4.315 1.13 2.31 0 4.506-1.056 4.506-3.48 0-1.683-1.403-2.623-3.45-2.97M103.877 1.967L100.514 1.967 100.514 10.772 98.836 10.772 98.836 1.967 95.473 1.967 95.473.379 103.877.379 103.877 1.967M108.654 3.675l-.371 1.537c-.327-.171-.802-.26-1.18-.26-.988 0-1.693.698-1.693 1.908v3.912h-1.552V3.66h1.537v.802c.468-.676 1.195-.988 2.064-.988.475 0 .839.06 1.195.2M110.807 7.216c0 1.247.81 2.28 2.146 2.28 1.284 0 2.146-.98 2.146-2.28 0-1.3-.862-2.28-2.146-2.28-1.336 0-2.146 1.033-2.146 2.28zm5.747 3.556h-1.552v-.854c-.49.632-1.225 1.04-2.235 1.04-1.99 0-3.556-1.567-3.556-3.742s1.567-3.742 3.556-3.742c1.01 0 1.745.416 2.235 1.047V3.66h1.552v7.112zM118.62 10.772h1.56V3.66h-1.56v7.112zm1.871-9.57c0 .617-.482 1.085-1.098 1.085-.617 0-1.084-.468-1.084-1.084 0-.617.467-1.099 1.084-1.099.616 0 1.098.482 1.098 1.099zM128.846 6.303v4.47h-1.56V6.814c0-1.195-.615-1.863-1.655-1.863-1.002 0-1.841.66-1.841 1.878v3.942h-1.559V3.66h1.544v.869c.572-.84 1.455-1.055 2.183-1.055 1.693 0 2.888 1.166 2.888 2.829M130.834 10.772h1.559V3.66h-1.56v7.112zm1.87-9.57c0 .617-.482 1.085-1.098 1.085-.616 0-1.084-.468-1.084-1.084 0-.617.468-1.099 1.084-1.099.616 0 1.099.482 1.099 1.099zM141.06 6.303v4.47h-1.56V6.814c0-1.195-.616-1.863-1.655-1.863-1.003 0-1.841.66-1.841 1.878v3.942h-1.56V3.66h1.545v.869c.572-.84 1.455-1.055 2.182-1.055 1.693 0 2.888 1.166 2.888 2.829M144.191 7.142c0 1.195.787 2.205 2.1 2.205 1.256 0 2.102-.958 2.102-2.205s-.846-2.205-2.102-2.205c-1.313 0-2.1 1.002-2.1 2.205zm4.068-2.628V3.66h1.56v6.615c0 2.234-1.44 3.608-3.816 3.608-1.063 0-2.227-.29-2.978-.824l.564-1.314c.72.438 1.545.72 2.414.72 1.455 0 2.256-.802 2.256-2.123V9.77c-.534.683-1.337 1.04-2.369 1.04-1.625 0-3.295-1.367-3.295-3.668 0-2.302 1.67-3.668 3.295-3.668 1.032 0 1.835.364 2.369 1.04zM11.67 6.303v4.47h-1.559V6.814c0-1.195-.616-1.863-1.655-1.863-1.002 0-1.841.66-1.841 1.878v3.942h-1.56V6.815c0-1.195-.615-1.863-1.655-1.863-1.002 0-1.84.66-1.84 1.878v3.942H0V3.66h1.544v.869C2.116 3.689 3 3.474 3.727 3.474c1.084 0 1.967.483 2.457 1.27.617-1.017 1.715-1.27 2.599-1.27 1.692 0 2.888 1.166 2.888 2.829M14.608 13.786L12.886 13.786 15.432 9.31 12.277 3.66 14.022 3.66 16.309 7.743 18.513 3.66 20.221 3.66 14.608 13.786" transform="translate(2)"/>
        </g>
    </g>
</svg>
